<svg width="7" height="12" viewBox="0 0 7 12" fill="none" xmlns="http://www.w3.org/2000/svg">
<rect width="7" height="12" fill="#E5E5E5"/>
<g clip-path="url(#clip0_0_1)">
<rect width="1920" height="1720" transform="translate(-1113 -1593)" fill="#F5F5FA"/>
<g clip-path="url(#clip1_0_1)">
<g clip-path="url(#clip2_0_1)">
<rect x="-55" y="-12" width="78" height="36" rx="5" fill="#D6E4FF"/>
<path fill-rule="evenodd" clip-rule="evenodd" d="M6.68799 5.3035C6.88777 5.48824 7 5.73877 7 6C7 6.26123 6.88777 6.51176 6.68799 6.6965L1.79343 11.2213C1.59491 11.4011 1.32763 11.5013 1.04967 11.5C0.771718 11.4987 0.505548 11.396 0.309002 11.2143C0.112456 11.0326 0.00141732 10.7866 1.3474e-05 10.5296C-0.00139037 10.2727 0.106955 10.0256 0.301505 9.84207L4.45757 6L0.301505 2.15793C0.106955 1.97441 -0.00139037 1.72732 1.3474e-05 1.47037C0.00141732 1.21341 0.112456 0.967353 0.309002 0.785657C0.505548 0.60396 0.771718 0.50131 1.04967 0.500012C1.32763 0.498715 1.59491 0.598874 1.79343 0.778726L6.68799 5.3035Z" fill="#0044CC"/>
</g>
</g>
</g>
<defs>
<clipPath id="clip0_0_1">
<rect width="1920" height="1720" fill="white" transform="translate(-1113 -1593)"/>
</clipPath>
<clipPath id="clip1_0_1">
<rect width="525" height="36" fill="white" transform="translate(-415 -12)"/>
</clipPath>
<clipPath id="clip2_0_1">
<rect width="165" height="36" fill="white" transform="translate(-55 -12)"/>
</clipPath>
</defs>
</svg>
